<?xml version="1.0" encoding="utf-8"?>
<!-- Generator: Adobe Illustrator 16.0.4, SVG Export Plug-In . SVG Version: 6.00 Build 0)  -->
<!DOCTYPE svg PUBLIC "-//W3C//DTD SVG 1.1//EN" "http://www.w3.org/Graphics/SVG/1.1/DTD/svg11.dtd">
<svg version="1.1" id="Layer_1" xmlns="http://www.w3.org/2000/svg" xmlns:xlink="http://www.w3.org/1999/xlink" x="0px" y="0px"
	 width="500px" height="316.312px" viewBox="0 0 500 316.312" enable-background="new 0 0 500 316.312" xml:space="preserve">
<g>
	<g>
		<path fill="#F36C22" d="M170.272,24.985L42.066,59.883l40.309,11.57v175.792l160.864,46.654V97.953L170.272,24.985z
			 M152.511,179.494l-24.018-7.034v-24.381l24.018,6.096V179.494z M152.718,146.438l-24.432-5.627c0,0,1.863-25.557,24.432-21.805
			V146.438z M159.346,120.18c0,0,24.639,4.453,27.536,34.696l-27.536-6.798V120.18z M159.551,181.135v-25.319l27.331,6.798
			l0.209,26.492L159.551,181.135z"/>
		<path fill="#FFFFFF" d="M316.576,24.985l-72.965,72.968v195.946l160.864-46.654V71.453l40.309-11.57L316.576,24.985z
			 M304.623,137.206l75.098-21.448c1.221-0.348,2.545,0.542,2.953,1.987c0.416,1.447-0.238,2.901-1.455,3.25l-75.1,21.447
			c-1.217,0.347-2.545-0.541-2.953-1.99C302.752,139.006,303.406,137.555,304.623,137.206z M267.144,138.983
			c1.55-1.802,3.399-3.57,3.399-3.57s1.207-1.236,3.1-0.141s6.322,3.606,6.322,3.606l15.23-16.397c0,0,1.418-1.695,3.568-0.458
			c2.154,1.239,4.26,1.802,2.582,4.064c-1.676,2.262-20.086,21.623-20.086,21.623s-1.38,1.764-4.479-0.355
			c-3.095-2.121-9.937-5.615-9.937-5.615S265.598,140.784,267.144,138.983z M268.754,177.049c1.549-1.805,3.398-3.567,3.398-3.567
			s1.204-1.237,3.096-0.144c1.896,1.095,6.326,3.607,6.326,3.607l15.23-16.396c0,0,1.418-1.696,3.568-0.458
			c2.154,1.236,4.26,1.801,2.584,4.064c-1.678,2.259-20.088,21.62-20.088,21.62s-1.38,1.766-4.479-0.354
			c-3.096-2.118-9.938-5.617-9.938-5.617S267.203,178.85,268.754,177.049z M283.314,223.842c0,0-1.375,1.77-4.475-0.353
			c-3.096-2.121-9.935-5.616-9.935-5.616s-1.248-0.956,0.298-2.757c1.545-1.802,3.399-3.569,3.399-3.569s1.202-1.235,3.099-0.142
			c1.893,1.096,6.322,3.605,6.322,3.605l15.229-16.393c0,0,1.42-1.697,3.57-0.464c2.152,1.237,4.26,1.805,2.584,4.065
			C301.729,204.485,283.314,223.842,283.314,223.842z M381.914,196.208l-75.098,21.449c-1.217,0.346-2.541-0.541-2.951-1.991
			c-0.414-1.446,0.236-2.899,1.457-3.244l75.1-21.451c1.217-0.346,2.539,0.543,2.953,1.988
			C383.789,194.407,383.135,195.86,381.914,196.208z M381.914,158.602l-75.098,21.445c-1.217,0.351-2.541-0.541-2.951-1.99
			c-0.414-1.444,0.236-2.895,1.457-3.243l75.1-21.448c1.217-0.348,2.539,0.542,2.953,1.986
			C383.789,156.799,383.135,158.251,381.914,158.602z"/>
	</g>
</g>
</svg>
