<?xml version="1.0" encoding="utf-8"?>
<!-- Generator: Adobe Illustrator 16.0.4, SVG Export Plug-In . SVG Version: 6.00 Build 0)  -->
<!DOCTYPE svg PUBLIC "-//W3C//DTD SVG 1.1//EN" "http://www.w3.org/Graphics/SVG/1.1/DTD/svg11.dtd">
<svg version="1.1" id="Layer_1" xmlns="http://www.w3.org/2000/svg" xmlns:xlink="http://www.w3.org/1999/xlink" x="0px" y="0px"
	 width="612px" height="792px" viewBox="0 0 612 792" enable-background="new 0 0 612 792" xml:space="preserve">
<path fill="#F36C22" d="M253.775,267.519l-70.78,19.267l22.254,6.388v97.052l88.811,25.757V307.803L253.775,267.519z M243.97,352.82
	l-13.26-3.884v-13.46l13.26,3.365V352.82z M244.084,334.57l-13.488-3.106c0,0,1.028-14.109,13.488-12.038V334.57z M247.743,320.074
	c0,0,13.603,2.458,15.202,19.155l-15.202-3.753V320.074z M247.856,353.727v-13.979l15.089,3.753l0.115,14.626L247.856,353.727z"/>
<path fill="#FFFFFF" d="M334.548,267.519l-40.283,40.284v108.179l88.811-25.757v-97.052l22.254-6.388L334.548,267.519z
	 M327.948,329.474l41.461-11.841c0.674-0.192,1.404,0.299,1.631,1.097c0.229,0.799-0.133,1.602-0.805,1.794l-41.461,11.841
	c-0.672,0.191-1.404-0.299-1.631-1.099C326.915,330.468,327.276,329.666,327.948,329.474z M307.257,330.455
	c0.855-0.995,1.877-1.971,1.877-1.971s0.666-0.683,1.711-0.078s3.49,1.991,3.49,1.991l8.408-9.053c0,0,0.783-0.936,1.971-0.253
	c1.189,0.684,2.352,0.995,1.426,2.244c-0.926,1.248-11.09,11.938-11.09,11.938s-0.762,0.974-2.473-0.196
	c-1.709-1.171-5.486-3.1-5.486-3.1S306.403,331.449,307.257,330.455z M308.146,351.471c0.855-0.996,1.877-1.97,1.877-1.97
	s0.664-0.683,1.709-0.079c1.047,0.604,3.492,1.991,3.492,1.991l8.408-9.052c0,0,0.783-0.937,1.971-0.253
	c1.189,0.683,2.352,0.994,1.426,2.244c-0.926,1.247-11.09,11.936-11.09,11.936s-0.762,0.976-2.473-0.194
	c-1.709-1.17-5.486-3.102-5.486-3.102S307.29,352.465,308.146,351.471z M316.185,377.305c0,0-0.76,0.977-2.471-0.195
	c-1.709-1.171-5.484-3.101-5.484-3.101s-0.689-0.527,0.164-1.521c0.854-0.995,1.877-1.971,1.877-1.971s0.664-0.683,1.711-0.078
	c1.045,0.604,3.49,1.99,3.49,1.99l8.408-9.05c0,0,0.783-0.938,1.971-0.256c1.188,0.683,2.352,0.996,1.426,2.244
	C326.351,366.617,316.185,377.305,316.185,377.305z M370.62,362.048l-41.461,11.842c-0.672,0.191-1.402-0.299-1.629-1.1
	c-0.229-0.798,0.131-1.6,0.805-1.791l41.461-11.842c0.672-0.191,1.402,0.299,1.631,1.098S371.294,361.855,370.62,362.048z
	 M370.62,341.286l-41.461,11.84c-0.672,0.193-1.402-0.299-1.629-1.099c-0.229-0.798,0.131-1.599,0.805-1.791l41.461-11.841
	c0.672-0.192,1.402,0.299,1.631,1.097C371.655,340.291,371.294,341.093,370.62,341.286z"/>
<text transform="matrix(1 0 0 1 107.1084 505.9814)" fill="#FFFFFF" font-family="'GothamRounded-BookItalic'" font-size="72" letter-spacing="-5">moveCheck</text>
</svg>
